
Genre:Horror | Sci-Fi | Thriller | War
Language:English
IMDb:http://www.imdb.com/title/tt1504467
Source:DVD

General
Complete name :Puppet Master Axis Of Evil 2010 DvDRip Ac3 Feel-Free
Format : AVI
Format/Info : Audio Video Interleave
File size : 967 MiB
Duration : 1h 21mn
Overall bit rate : 1 667 Kbps
Video #0
Codec ID : XVID
Codec ID/Hint : XviD
Duration : 1h 21mn
Bit rate : 1 209 Kbps
Width : 688 pixels
Height : 288 pixels
Display aspect ratio : 2.35:1
Frame rate : 23.976 fps
Resolution : 24 bits
Colorimetry : 4:2:0
Scan type : Progressive
Bits/(Pixel*Frame) : 0.255
Stream size : 702 MiB (73%)
Writing library : XviD 1.2.1 (UTC 2008-12-04)
Audio #1
ID : 1
Format : AC-3
Format/Info : Audio Coding 3
Codec ID : 2000
Duration : 1h 21mn
Bit rate mode : Constant
Bit rate : 448 Kbps
Channel(s) : 6 channels
Channel positions : Front: L C R, Surround: L R, LFE
Sampling rate : 48.0 KHz
Stream size : 260 MiB (27%)
Alignment : Split accross interleaves
Interleave, duration : 42 ms (1.00 video frame)
Interleave, preload duration : 500 ms

Plot:
In a Stateside hotel during the height of World War II, young Danny Coogan dreams of joining the war effort. Following the murder of hotel guest Mr. Toulon by Nazi assassins, Danny finds the old man's crate of mysterious puppets and is suddenly thrust into a battle all his own. He discovers that Nazis Max and Klaus